<?xml version="1.0" encoding="utf-8"?>
<svg xmlns="http://www.w3.org/2000/svg"
	xmlns:xlink="http://www.w3.org/1999/xlink"
	width="390px" height="390px" viewBox="0 0 390 390">
<path fillRule="evenodd" d="M 195 389C 301.97 389 389 301.97 389 195 389 88.03 301.97 1 195 1 88.03 1 1 88.03 1 195 1 301.97 88.03 389 195 389M 195 390C 87.3 390-0 302.7-0 195-0 87.3 87.3-0 195-0 302.7-0 390 87.3 390 195 390 302.7 302.7 390 195 390 195 390 195 390 195 390Z" fill="rgb(255,255,255)" opacity="0.40"/></svg>