<?xml version="1.0" encoding="utf-8"?>
<svg xmlns="http://www.w3.org/2000/svg"
	xmlns:xlink="http://www.w3.org/1999/xlink"
	width="10px" height="47px" viewBox="0 0 10 47">
<path fillRule="evenodd" d="M 9.93 24.08C 9.93 24.08 0.93 46.63 0.93 46.63 0.79 46.98 0.49 47.1 0.25 46.9 0.01 46.7-0.07 46.26 0.07 45.91 0.07 45.91 8.98 23.57 8.98 23.57 8.98 23.57 0.07 1.09 0.07 1.09-0.07 0.75 0.01 0.3 0.25 0.1 0.49-0.1 0.79 0.02 0.93 0.37 0.93 0.37 9.93 23.05 9.93 23.05 10 23.21 10.01 23.4 9.98 23.57 10.01 23.73 10 23.92 9.93 24.08Z" fill="rgb(255,157,0)"/></svg>