<?xml version="1.0" encoding="utf-8"?>
<svg xmlns="http://www.w3.org/2000/svg"
	xmlns:xlink="http://www.w3.org/1999/xlink"
	width="10px" height="47px" viewBox="0 0 10 47">
<path fillRule="evenodd" d="M 1.02 23.57C 1.02 23.57 9.93 45.91 9.93 45.91 10.07 46.26 9.99 46.7 9.75 46.9 9.51 47.1 9.2 46.98 9.07 46.63 9.07 46.63 0.07 24.08 0.07 24.08 0 23.92-0.01 23.73 0.02 23.57-0.01 23.4 0 23.21 0.07 23.05 0.07 23.05 9.07 0.37 9.07 0.37 9.2 0.02 9.51-0.1 9.75 0.1 9.99 0.3 10.07 0.75 9.93 1.09 9.93 1.09 1.02 23.57 1.02 23.57Z" fill="rgb(255,157,0)"/></svg>