<?xml version="1.0" encoding="utf-8"?>
<svg xmlns="http://www.w3.org/2000/svg"
	xmlns:xlink="http://www.w3.org/1999/xlink"
	width="6px" height="19px" viewBox="0 0 6 19">
<path fillRule="evenodd" d="M 5.83 1.66C 5.83 1.66 1.22 9.62 1.22 9.62 1.22 9.62 5.71 17.38 5.71 17.38 5.92 17.75 5.92 18.35 5.71 18.71 5.5 19.08 5.15 19.08 4.94 18.71 4.94 18.71 0.31 10.71 0.31 10.71 0.19 10.52 0.14 10.25 0.15 9.99-0.05 9.6-0.04 9.01 0.17 8.64 0.17 8.64 5.02 0.26 5.02 0.26 5.24-0.12 5.6-0.12 5.83 0.26 6.05 0.65 6.05 1.28 5.83 1.66Z" fill="rgb(255,255,255)"/></svg>