<?xml version="1.0" encoding="utf-8"?>
<svg xmlns="http://www.w3.org/2000/svg"
	xmlns:xlink="http://www.w3.org/1999/xlink"
	width="6px" height="19px" viewBox="0 0 6 19">
<path fillRule="evenodd" d="M 5.85 9.99C 5.86 10.25 5.81 10.52 5.69 10.71 5.69 10.71 1.06 18.71 1.06 18.71 0.85 19.08 0.5 19.08 0.29 18.71 0.08 18.35 0.08 17.75 0.29 17.38 0.29 17.38 4.78 9.62 4.78 9.62 4.78 9.62 0.17 1.66 0.17 1.66-0.05 1.28-0.05 0.65 0.17 0.26 0.4-0.12 0.76-0.12 0.98 0.26 0.98 0.26 5.83 8.64 5.83 8.64 6.04 9.01 6.05 9.6 5.85 9.99Z" fill="rgb(255,255,255)"/></svg>